<svg width="24" height="28" viewBox="0 0 24 28" fill="none" xmlns="http://www.w3.org/2000/svg">
<path d="M19.5311 14.7585C19.5192 12.5736 20.5075 10.9244 22.5079 9.70994C21.3886 8.10846 19.6978 7.22734 17.4653 7.05469C15.3518 6.888 13.0419 8.28706 12.1965 8.28706C11.3035 8.28706 9.25546 7.11423 7.64803 7.11423C4.326 7.16781 0.795593 9.76352 0.795593 15.0442C0.795593 16.604 1.08136 18.2155 1.65289 19.8785C2.41494 22.0634 5.16544 27.4215 8.035 27.3322C9.53528 27.2965 10.595 26.2665 12.5477 26.2665C14.4409 26.2665 15.4233 27.3322 17.0962 27.3322C19.9896 27.2905 22.4781 22.4206 23.2044 20.2297C19.3228 18.402 19.5311 14.8716 19.5311 14.7585ZM16.1615 4.98289C17.7868 3.05396 17.6379 1.29769 17.5903 0.666626C16.1555 0.749974 14.4945 1.64299 13.5479 2.74438C12.5061 3.92317 11.8928 5.38177 12.0238 7.02493C13.5777 7.14399 14.9946 6.34623 16.1615 4.98289Z" fill="black"/>
</svg>
