<svg width="25" height="25" viewBox="0 0 25 25" fill="none" xmlns="http://www.w3.org/2000/svg">
<path d="M11.6566 6.18701H6.09035C5.66856 6.18701 5.26405 6.35457 4.9658 6.65282C4.66755 6.95106 4.5 7.35558 4.5 7.77736V18.9098C4.5 19.3316 4.66755 19.7361 4.9658 20.0344C5.26405 20.3326 5.66856 20.5002 6.09035 20.5002H17.2228C17.6446 20.5002 18.0491 20.3326 18.3474 20.0344C18.6456 19.7361 18.8132 19.3316 18.8132 18.9098V13.3436" stroke="black" stroke-opacity="0.7" stroke-width="1.5" stroke-linecap="round" stroke-linejoin="round"/>
<path d="M17.1628 4.99406C17.4792 4.67772 17.9082 4.5 18.3556 4.5C18.803 4.5 19.232 4.67772 19.5484 4.99406C19.8647 5.3104 20.0424 5.73945 20.0424 6.18682C20.0424 6.6342 19.8647 7.06325 19.5484 7.37959L11.9942 14.9338L8.81348 15.7289L9.60865 12.5482L17.1628 4.99406Z" stroke="black" stroke-opacity="0.7" stroke-width="1.5" stroke-linecap="round" stroke-linejoin="round"/>
</svg>
