<svg width="28" height="28" viewBox="0 0 28 28" fill="none" xmlns="http://www.w3.org/2000/svg">
<path d="M27.3334 14C27.3334 6.6354 21.3646 0.666626 14 0.666626C6.63546 0.666626 0.666687 6.6354 0.666687 14C0.666687 20.6562 5.54169 26.1718 11.9167 27.1718V17.8541H8.53124V14H11.9167V11.0625C11.9167 7.72129 13.9063 5.87496 16.9531 5.87496C18.4115 5.87496 19.9375 6.13538 19.9375 6.13538V9.41663H18.2552C16.599 9.41663 16.0834 10.4453 16.0834 11.5V14H19.7812L19.1901 17.8541H16.0834V27.1718C22.4584 26.1718 27.3334 20.6562 27.3334 14Z" fill="#1877F2"/>
<path d="M19.1901 17.8542L19.7812 14H16.0834V11.5C16.0834 10.4453 16.599 9.41667 18.2552 9.41667H19.9375V6.13542C19.9375 6.13542 18.4115 5.875 16.9531 5.875C13.9063 5.875 11.9167 7.72133 11.9167 11.0625V14H8.53125V17.8542H11.9167V27.1719C12.5964 27.2787 13.2917 27.3333 14 27.3333C14.7084 27.3333 15.4037 27.2787 16.0834 27.1719V17.8542H19.1901Z" fill="white"/>
</svg>
