<svg width="27" height="27" viewBox="0 0 27 27" fill="none" xmlns="http://www.w3.org/2000/svg">
<path d="M26.1348 13.6532C26.1348 12.7527 26.0477 11.8231 25.9024 10.9517H13.3245V16.0932H20.5285C20.238 17.749 19.2794 19.2014 17.8561 20.1309L22.1552 23.4715C24.6824 21.1186 26.1348 17.6909 26.1348 13.6532Z" fill="#4280EF"/>
<path d="M13.327 26.6667C16.929 26.6667 19.95 25.4757 22.1577 23.4423L17.8585 20.1308C16.6675 20.9442 15.128 21.409 13.327 21.409C9.84118 21.409 6.9073 19.056 5.83252 15.9188L1.41718 19.3175C3.68294 23.82 8.27257 26.6667 13.327 26.6667Z" fill="#34A353"/>
<path d="M5.83132 15.8898C5.2794 14.2341 5.2794 12.4331 5.83132 10.7773L1.41598 7.34961C-0.472157 11.1259 -0.472157 15.5703 1.41598 19.3175L5.83132 15.8898Z" fill="#F6B704"/>
<path d="M13.327 5.2873C15.2151 5.25825 17.0742 5.98446 18.4395 7.29163L22.2448 3.45725C19.8338 1.19149 16.6385 -0.0285413 13.327 0.000506977C8.27257 0.000506977 3.68294 2.84724 1.41718 7.34973L5.83252 10.7774C6.9073 7.61116 9.84118 5.2873 13.327 5.2873Z" fill="#E54335"/>
</svg>
