<svg width="22" height="22" viewBox="0 0 22 22" fill="none" xmlns="http://www.w3.org/2000/svg">
<path d="M11 7V11.4648C11 11.7992 11.1671 12.1114 11.4453 12.2969L14 14" stroke="black" stroke-width="1.5" stroke-linecap="round"/>
<path d="M21.083 4.94995V9.16663H17.0498" stroke="black" stroke-width="1.5" stroke-linecap="round" stroke-linejoin="round"/>
<path d="M18.7827 13.7501C18.1869 15.4366 17.059 16.8839 15.569 17.8737C14.0791 18.8635 12.3078 19.3422 10.5221 19.2378C8.7364 19.1333 7.03302 18.4513 5.66866 17.2945C4.30429 16.1377 3.35285 14.5688 2.95772 12.8243C2.56258 11.0797 2.74515 9.25398 3.47792 7.6222C4.21069 5.99042 5.45396 4.64101 7.02037 3.77731C8.58679 2.9136 10.3915 2.5824 12.1625 2.8336C13.9335 3.08481 15.5749 3.90481 16.8394 5.17005L21.0836 9.16672" stroke="black" stroke-width="1.5" stroke-linecap="round" stroke-linejoin="round"/>
</svg>
