<svg width="25" height="25" viewBox="0 0 25 25" fill="none" xmlns="http://www.w3.org/2000/svg">
<path d="M16.5217 4.19847C15.3963 3.20868 13.9109 2.66675 12.3354 2.66675C10.7599 2.66675 9.27441 3.21245 8.14906 4.19847C6.9787 5.22589 6.3335 6.60707 6.3335 8.0861V8.37212C6.3335 8.53772 6.46854 8.6732 6.63359 8.6732H8.43415C8.5992 8.6732 8.73424 8.53772 8.73424 8.37212V8.0861C8.73424 6.42642 10.351 5.07535 12.3354 5.07535C14.3197 5.07535 15.9365 6.42642 15.9365 8.0861C15.9365 9.25653 15.1112 10.3291 13.8321 10.8221C13.0368 11.127 12.3616 11.6614 11.8777 12.3614C11.3863 13.0764 11.1312 13.9345 11.1312 14.8038V15.613C11.1312 15.7786 11.2663 15.9141 11.4313 15.9141H13.2319C13.3969 15.9141 13.532 15.7786 13.532 15.613V14.7587C13.5339 14.3933 13.6456 14.037 13.8523 13.7363C14.0591 13.4355 14.3514 13.2043 14.6911 13.0727C16.9043 12.2184 18.3335 10.2614 18.3335 8.0861C18.3372 6.60707 17.692 5.22589 16.5217 4.19847ZM10.8349 19.828C10.8349 20.2273 10.993 20.6102 11.2744 20.8925C11.5558 21.1748 11.9374 21.3334 12.3354 21.3334C12.7333 21.3334 13.115 21.1748 13.3964 20.8925C13.6777 20.6102 13.8358 20.2273 13.8358 19.828C13.8358 19.4288 13.6777 19.0459 13.3964 18.7636C13.115 18.4813 12.7333 18.3227 12.3354 18.3227C11.9374 18.3227 11.5558 18.4813 11.2744 18.7636C10.993 19.0459 10.8349 19.4288 10.8349 19.828Z" fill="black" fill-opacity="0.85"/>
</svg>
