<svg width="60" height="60" viewBox="0 0 60 60" fill="none" xmlns="http://www.w3.org/2000/svg">
<circle cx="30" cy="30" r="30" fill="#D9D9D9"/>
<path d="M44.7446 40.7467C43.9419 38.8382 42.777 37.1046 41.3148 35.6425C39.8571 34.1761 38.1303 33.0071 36.2297 32.1997C36.2127 32.1912 36.1957 32.1869 36.1787 32.1784C38.8297 30.2563 40.5531 27.1254 40.5531 23.593C40.5531 17.7412 35.8297 13 30 13C24.1703 13 19.4469 17.7412 19.4469 23.593C19.4469 27.1254 21.1703 30.2563 23.8213 32.1827C23.8043 32.1912 23.7873 32.1955 23.7703 32.204C21.8639 33.0113 20.1533 34.1688 18.6852 35.6467C17.2244 37.11 16.0597 38.8433 15.2554 40.751C14.4653 42.6187 14.0392 44.621 14.0001 46.6497C13.999 46.6953 14.0069 46.7407 14.0235 46.7831C14.0401 46.8256 14.065 46.8643 14.0968 46.8969C14.1285 46.9296 14.1664 46.9555 14.2083 46.9732C14.2501 46.9909 14.2951 47 14.3405 47H16.8937C17.0809 47 17.2299 46.8505 17.2341 46.6668C17.3192 43.3693 18.6384 40.2812 20.9703 37.9405C23.383 35.5186 26.5873 34.1859 30 34.1859C33.4127 34.1859 36.617 35.5186 39.0297 37.9405C41.3616 40.2812 42.6808 43.3693 42.7659 46.6668C42.7701 46.8548 42.9191 47 43.1063 47H45.6595C45.7049 47 45.7499 46.9909 45.7917 46.9732C45.8336 46.9555 45.8715 46.9296 45.9032 46.8969C45.935 46.8643 45.9599 46.8256 45.9765 46.7831C45.9931 46.7407 46.001 46.6953 45.9999 46.6497C45.9573 44.608 45.5361 42.6219 44.7446 40.7467ZM30 30.9397C28.0468 30.9397 26.2085 30.1751 24.8256 28.7869C23.4426 27.3987 22.6809 25.5535 22.6809 23.593C22.6809 21.6324 23.4426 19.7872 24.8256 18.399C26.2085 17.0108 28.0468 16.2462 30 16.2462C31.9532 16.2462 33.7915 17.0108 35.1744 18.399C36.5574 19.7872 37.3191 21.6324 37.3191 23.593C37.3191 25.5535 36.5574 27.3987 35.1744 28.7869C33.7915 30.1751 31.9532 30.9397 30 30.9397Z" fill="white"/>
</svg>
