<svg width="26" height="26" viewBox="0 0 26 26" fill="none" xmlns="http://www.w3.org/2000/svg">
<circle cx="13" cy="13" r="13" fill="#1890FF" fill-opacity="0.2"/>
<path d="M13 6.39062C10.5145 6.39062 8.5 8.40508 8.5 10.8906C8.5 12.5166 9.36836 13.9896 10.7518 14.7895L11.3828 15.1551V17.2188H14.6172V15.1551L15.2482 14.7895C16.6316 13.9896 17.5 12.5166 17.5 10.8906C17.5 8.40508 15.4855 6.39062 13 6.39062Z" fill="#E6F7FF"/>
<path d="M15.1094 19.6094H10.8906C10.8133 19.6094 10.75 19.6727 10.75 19.75V20.3125C10.75 20.6236 11.0014 20.875 11.3125 20.875H14.6875C14.9986 20.875 15.25 20.6236 15.25 20.3125V19.75C15.25 19.6727 15.1867 19.6094 15.1094 19.6094ZM13 5.125C9.8166 5.125 7.23438 7.70723 7.23438 10.8906C7.23438 13.0246 8.39453 14.8879 10.1172 15.8846V17.9219C10.1172 18.233 10.3686 18.4844 10.6797 18.4844H15.3203C15.6314 18.4844 15.8828 18.233 15.8828 17.9219V15.8846C17.6055 14.8879 18.7656 13.0246 18.7656 10.8906C18.7656 7.70723 16.1834 5.125 13 5.125ZM15.2482 14.7895L14.6172 15.1551V17.2188H11.3828V15.1551L10.7518 14.7895C9.36836 13.9896 8.5 12.5166 8.5 10.8906C8.5 8.40508 10.5145 6.39062 13 6.39062C15.4855 6.39062 17.5 8.40508 17.5 10.8906C17.5 12.5166 16.6316 13.9896 15.2482 14.7895Z" fill="#1890FF"/>
</svg>
