<svg width="26" height="26" viewBox="0 0 26 26" fill="none" xmlns="http://www.w3.org/2000/svg">
<path d="M15.6431 19.2143H11.3574C11.2788 19.2143 11.2145 19.2786 11.2145 19.3571V19.9286C11.2145 20.2446 11.4699 20.5 11.7859 20.5H15.2145C15.5306 20.5 15.7859 20.2446 15.7859 19.9286V19.3571C15.7859 19.2786 15.7216 19.2143 15.6431 19.2143ZM13.5002 4.5C10.2663 4.5 7.64307 7.12321 7.64307 10.3571C7.64307 12.525 8.82164 14.4179 10.5716 15.4304V17.5C10.5716 17.8161 10.827 18.0714 11.1431 18.0714H15.8574C16.1734 18.0714 16.4288 17.8161 16.4288 17.5V15.4304C18.1788 14.4179 19.3574 12.525 19.3574 10.3571C19.3574 7.12321 16.7341 4.5 13.5002 4.5ZM15.7841 14.3179L15.1431 14.6893V16.7857H11.8574V14.6893L11.2163 14.3179C9.81092 13.5054 8.92878 12.0089 8.92878 10.3571C8.92878 7.83214 10.9752 5.78571 13.5002 5.78571C16.0252 5.78571 18.0716 7.83214 18.0716 10.3571C18.0716 12.0089 17.1895 13.5054 15.7841 14.3179Z" fill="#185CC4"/>
</svg>
