<svg width="214" height="103" viewBox="0 0 214 103" fill="none" xmlns="http://www.w3.org/2000/svg">
<path d="M13.6479 38.2139H16.3872C18.9474 38.2139 20.8631 37.7126 22.1343 36.71C23.4054 35.6895 24.041 34.2124 24.041 32.2788C24.041 30.3273 23.5039 28.8861 22.4297 27.9551C21.3734 27.0241 19.7083 26.5586 17.4346 26.5586H13.6479V38.2139ZM32.4468 31.9834C32.4468 36.2087 31.1219 39.4403 28.4722 41.6782C25.8403 43.9162 22.0895 45.0352 17.2197 45.0352H13.6479V59H5.32275V19.7373H17.8643C22.6266 19.7373 26.2432 20.7668 28.7139 22.8257C31.2025 24.8667 32.4468 27.9193 32.4468 31.9834ZM39.8589 59V19.7373H48.1841V52.125H64.1094V59H39.8589ZM106.595 39.3149C106.595 45.814 104.983 50.8091 101.761 54.3003C98.5381 57.7915 93.9189 59.5371 87.9033 59.5371C81.8877 59.5371 77.2686 57.7915 74.0459 54.3003C70.8232 50.8091 69.2119 45.7961 69.2119 39.2612C69.2119 32.7264 70.8232 27.7402 74.0459 24.3027C77.2865 20.8473 81.9235 19.1196 87.957 19.1196C93.9906 19.1196 98.6007 20.8563 101.788 24.3296C104.992 27.8029 106.595 32.798 106.595 39.3149ZM77.9399 39.3149C77.9399 43.7013 78.7725 47.0046 80.4375 49.2246C82.1025 51.4447 84.5911 52.5547 87.9033 52.5547C94.5456 52.5547 97.8667 48.1414 97.8667 39.3149C97.8667 30.4705 94.5635 26.0483 87.957 26.0483C84.6449 26.0483 82.1473 27.1673 80.4644 29.4053C78.7814 31.6253 77.9399 34.9285 77.9399 39.3149ZM129.637 36.9517H145.213V57.3081C142.688 58.1317 140.307 58.7046 138.069 59.0269C135.849 59.367 133.576 59.5371 131.248 59.5371C125.322 59.5371 120.792 57.8005 117.659 54.3271C114.544 50.8359 112.986 45.8319 112.986 39.3149C112.986 32.9771 114.795 28.0356 118.411 24.4907C122.046 20.9458 127.076 19.1733 133.504 19.1733C137.532 19.1733 141.417 19.979 145.159 21.5903L142.393 28.2505C139.528 26.8182 136.548 26.1021 133.45 26.1021C129.852 26.1021 126.969 27.3105 124.803 29.7275C122.636 32.1445 121.553 35.394 121.553 39.4761C121.553 43.7371 122.422 46.9956 124.158 49.2515C125.913 51.4894 128.455 52.6084 131.785 52.6084C133.522 52.6084 135.285 52.4294 137.076 52.0713V43.8804H129.637V36.9517ZM154.585 59V19.7373H162.911V59H154.585ZM207.625 59H197.044L179.964 29.2979H179.722C180.062 34.5436 180.232 38.2855 180.232 40.5234V59H172.793V19.7373H183.294L200.347 49.144H200.535C200.267 44.0415 200.132 40.4339 200.132 38.3213V19.7373H207.625V59Z" fill="#185CC4"/>
<path d="M16.0845 97H12.6372L10.7036 89.5C10.632 89.2331 10.5083 88.6829 10.3325 87.8496C10.1632 87.0098 10.0656 86.4466 10.0396 86.1602C10.0005 86.5117 9.90283 87.0781 9.74658 87.8594C9.59033 88.6341 9.46989 89.1875 9.38525 89.5195L7.46143 97H4.02393L0.381348 82.7227H3.35986L5.18604 90.5156C5.50505 91.9544 5.73617 93.2012 5.87939 94.2559C5.91846 93.8848 6.00635 93.3118 6.14307 92.5371C6.2863 91.7559 6.41976 91.1504 6.54346 90.7207L8.62354 82.7227H11.4849L13.5649 90.7207C13.6561 91.0788 13.77 91.6257 13.9067 92.3613C14.0435 93.097 14.1476 93.7285 14.2192 94.2559C14.2843 93.748 14.3885 93.1165 14.5317 92.3613C14.675 91.5996 14.8052 90.9844 14.9224 90.5156L16.7388 82.7227H19.7173L16.0845 97ZM25.8013 87.9961C25.1698 87.9961 24.675 88.1979 24.3169 88.6016C23.9588 88.9987 23.7537 89.5651 23.7017 90.3008H27.8813C27.8683 89.5651 27.6763 88.9987 27.3052 88.6016C26.9341 88.1979 26.4328 87.9961 25.8013 87.9961ZM26.2212 97.1953C24.4634 97.1953 23.0897 96.7103 22.1001 95.7402C21.1105 94.7702 20.6157 93.3965 20.6157 91.6191C20.6157 89.7897 21.0715 88.377 21.9829 87.3809C22.9009 86.3783 24.1672 85.877 25.7817 85.877C27.3247 85.877 28.5259 86.3164 29.3853 87.1953C30.2446 88.0742 30.6743 89.2884 30.6743 90.8379V92.2832H23.6333C23.6659 93.1296 23.9165 93.7904 24.3853 94.2656C24.854 94.7409 25.5116 94.9785 26.3579 94.9785C27.0155 94.9785 27.6372 94.9102 28.2231 94.7734C28.8091 94.6367 29.4211 94.4186 30.0591 94.1191V96.4238C29.5382 96.6842 28.9816 96.8763 28.3892 97C27.7967 97.1302 27.0741 97.1953 26.2212 97.1953ZM44.2876 97.1953C43.005 97.1953 41.9992 96.7298 41.27 95.7988H41.1138C41.2179 96.7103 41.27 97.2376 41.27 97.3809V101.805H38.2915V86.082H40.7134L41.1333 87.498H41.27C41.9666 86.4173 42.9985 85.877 44.3657 85.877C45.6548 85.877 46.6639 86.375 47.3931 87.3711C48.1222 88.3672 48.4868 89.7507 48.4868 91.5215C48.4868 92.6868 48.3143 93.6992 47.9692 94.5586C47.6307 95.418 47.1457 96.0723 46.5142 96.5215C45.8826 96.9707 45.1405 97.1953 44.2876 97.1953ZM43.4087 88.2598C42.673 88.2598 42.1359 88.4876 41.7974 88.9434C41.4588 89.3926 41.283 90.138 41.27 91.1797V91.502C41.27 92.6738 41.4425 93.5137 41.7876 94.0215C42.1392 94.5293 42.6925 94.7832 43.4478 94.7832C44.7824 94.7832 45.4497 93.6829 45.4497 91.4824C45.4497 90.4082 45.2837 89.6042 44.9517 89.0703C44.6261 88.5299 44.1118 88.2598 43.4087 88.2598ZM53.9263 97H50.9478V81.8047H53.9263V97ZM64.7954 97L64.395 95.6035H64.2388C63.9198 96.1113 63.4673 96.5052 62.8813 96.7852C62.2954 97.0586 61.6281 97.1953 60.8794 97.1953C59.5968 97.1953 58.63 96.8535 57.979 96.1699C57.328 95.4798 57.0024 94.4902 57.0024 93.2012V86.082H59.981V92.459C59.981 93.2467 60.1209 93.8392 60.4009 94.2363C60.6808 94.627 61.1268 94.8223 61.7388 94.8223C62.5721 94.8223 63.1743 94.5456 63.5454 93.9922C63.9165 93.4323 64.1021 92.5078 64.1021 91.2188V86.082H67.0806V97H64.7954ZM79.7075 86.082V87.5957L77.9985 88.0352C78.311 88.5234 78.4673 89.0703 78.4673 89.6758C78.4673 90.8477 78.0571 91.7624 77.2368 92.4199C76.423 93.071 75.2902 93.3965 73.8384 93.3965L73.3013 93.3672L72.8618 93.3184C72.5558 93.5527 72.4028 93.8132 72.4028 94.0996C72.4028 94.5293 72.9497 94.7441 74.0435 94.7441H75.8989C77.0968 94.7441 78.0083 95.0013 78.6333 95.5156C79.2648 96.0299 79.5806 96.7852 79.5806 97.7812C79.5806 99.0573 79.0467 100.047 77.979 100.75C76.9178 101.453 75.3911 101.805 73.3989 101.805C71.8755 101.805 70.7101 101.538 69.9028 101.004C69.1021 100.477 68.7017 99.7344 68.7017 98.7773C68.7017 98.1198 68.9067 97.5697 69.3169 97.127C69.7271 96.6842 70.3293 96.3685 71.1235 96.1797C70.8175 96.0495 70.5506 95.8379 70.3228 95.5449C70.0949 95.2454 69.981 94.9297 69.981 94.5977C69.981 94.181 70.1014 93.8359 70.3423 93.5625C70.5832 93.2826 70.9315 93.0091 71.3872 92.7422C70.8143 92.4948 70.3586 92.0977 70.02 91.5508C69.688 91.0039 69.522 90.3594 69.522 89.6172C69.522 88.4258 69.9093 87.5046 70.6841 86.8535C71.4588 86.2025 72.5656 85.877 74.0044 85.877C74.3104 85.877 74.6717 85.9062 75.0884 85.9648C75.5116 86.0169 75.7817 86.056 75.8989 86.082H79.7075ZM71.2798 98.543C71.2798 98.9531 71.4751 99.2754 71.8657 99.5098C72.2629 99.7441 72.8162 99.8613 73.5259 99.8613C74.5936 99.8613 75.4302 99.7148 76.0356 99.4219C76.6411 99.1289 76.9438 98.7285 76.9438 98.2207C76.9438 97.8105 76.7648 97.5273 76.4067 97.3711C76.0487 97.2148 75.4953 97.1367 74.7466 97.1367H73.2036C72.6567 97.1367 72.1978 97.2637 71.8267 97.5176C71.4621 97.778 71.2798 98.1198 71.2798 98.543ZM72.3638 89.6562C72.3638 90.2487 72.4972 90.7174 72.7642 91.0625C73.0376 91.4076 73.451 91.5801 74.0044 91.5801C74.5643 91.5801 74.9744 91.4076 75.2349 91.0625C75.4953 90.7174 75.6255 90.2487 75.6255 89.6562C75.6255 88.3411 75.0851 87.6836 74.0044 87.6836C72.9106 87.6836 72.3638 88.3411 72.3638 89.6562ZM85.147 86.082H88.4087L90.4692 92.2246C90.645 92.7585 90.7655 93.39 90.8306 94.1191H90.8892C90.9608 93.4486 91.1007 92.8171 91.3091 92.2246L93.3306 86.082H96.5239L91.9048 98.3965C91.4816 99.5358 90.8761 100.389 90.0884 100.955C89.3071 101.521 88.3924 101.805 87.3442 101.805C86.8299 101.805 86.3254 101.749 85.8306 101.639V99.2754C86.1886 99.36 86.5793 99.4023 87.0024 99.4023C87.5298 99.4023 87.9888 99.2396 88.3794 98.9141C88.7765 98.5951 89.0858 98.11 89.3071 97.459L89.4829 96.9219L85.147 86.082ZM100.469 91.5215C100.469 92.6022 100.645 93.4193 100.997 93.9727C101.355 94.526 101.934 94.8027 102.735 94.8027C103.529 94.8027 104.099 94.5293 104.444 93.9824C104.795 93.429 104.971 92.6087 104.971 91.5215C104.971 90.4408 104.795 89.6302 104.444 89.0898C104.092 88.5495 103.516 88.2793 102.715 88.2793C101.921 88.2793 101.348 88.5495 100.997 89.0898C100.645 89.6237 100.469 90.4342 100.469 91.5215ZM108.018 91.5215C108.018 93.2988 107.549 94.6888 106.612 95.6914C105.674 96.694 104.369 97.1953 102.696 97.1953C101.648 97.1953 100.723 96.9674 99.9224 96.5117C99.1216 96.0495 98.5063 95.3887 98.0767 94.5293C97.647 93.6699 97.4321 92.6673 97.4321 91.5215C97.4321 89.7376 97.8976 88.3509 98.8286 87.3613C99.7596 86.3717 101.068 85.877 102.754 85.877C103.803 85.877 104.727 86.1048 105.528 86.5605C106.329 87.0163 106.944 87.6706 107.374 88.5234C107.803 89.3763 108.018 90.3757 108.018 91.5215ZM118.213 97L117.813 95.6035H117.657C117.338 96.1113 116.885 96.5052 116.299 96.7852C115.713 97.0586 115.046 97.1953 114.297 97.1953C113.015 97.1953 112.048 96.8535 111.397 96.1699C110.746 95.4798 110.42 94.4902 110.42 93.2012V86.082H113.399V92.459C113.399 93.2467 113.539 93.8392 113.819 94.2363C114.099 94.627 114.545 94.8223 115.157 94.8223C115.99 94.8223 116.592 94.5456 116.963 93.9922C117.334 93.4323 117.52 92.5078 117.52 91.2188V86.082H120.499V97H118.213ZM129.717 85.877C130.121 85.877 130.456 85.9062 130.723 85.9648L130.499 88.7578C130.258 88.6927 129.965 88.6602 129.62 88.6602C128.669 88.6602 127.927 88.9043 127.393 89.3926C126.866 89.8809 126.602 90.5645 126.602 91.4434V97H123.624V86.082H125.879L126.319 87.918H126.465C126.804 87.306 127.26 86.8145 127.833 86.4434C128.412 86.0658 129.04 85.877 129.717 85.877ZM140.879 97H137.901V81.8047H140.879V97ZM146.387 91.5215C146.387 92.6022 146.563 93.4193 146.915 93.9727C147.273 94.526 147.852 94.8027 148.653 94.8027C149.447 94.8027 150.017 94.5293 150.362 93.9824C150.713 93.429 150.889 92.6087 150.889 91.5215C150.889 90.4408 150.713 89.6302 150.362 89.0898C150.01 88.5495 149.434 88.2793 148.633 88.2793C147.839 88.2793 147.266 88.5495 146.915 89.0898C146.563 89.6237 146.387 90.4342 146.387 91.5215ZM153.936 91.5215C153.936 93.2988 153.467 94.6888 152.53 95.6914C151.592 96.694 150.287 97.1953 148.614 97.1953C147.566 97.1953 146.641 96.9674 145.84 96.5117C145.04 96.0495 144.424 95.3887 143.995 94.5293C143.565 93.6699 143.35 92.6673 143.35 91.5215C143.35 89.7376 143.816 88.3509 144.747 87.3613C145.678 86.3717 146.986 85.877 148.672 85.877C149.721 85.877 150.645 86.1048 151.446 86.5605C152.247 87.0163 152.862 87.6706 153.292 88.5234C153.721 89.3763 153.936 90.3757 153.936 91.5215ZM165.899 86.082V87.5957L164.19 88.0352C164.502 88.5234 164.659 89.0703 164.659 89.6758C164.659 90.8477 164.249 91.7624 163.428 92.4199C162.614 93.071 161.482 93.3965 160.03 93.3965L159.493 93.3672L159.053 93.3184C158.747 93.5527 158.594 93.8132 158.594 94.0996C158.594 94.5293 159.141 94.7441 160.235 94.7441H162.09C163.288 94.7441 164.2 95.0013 164.825 95.5156C165.456 96.0299 165.772 96.7852 165.772 97.7812C165.772 99.0573 165.238 100.047 164.17 100.75C163.109 101.453 161.583 101.805 159.59 101.805C158.067 101.805 156.902 101.538 156.094 101.004C155.293 100.477 154.893 99.7344 154.893 98.7773C154.893 98.1198 155.098 97.5697 155.508 97.127C155.918 96.6842 156.521 96.3685 157.315 96.1797C157.009 96.0495 156.742 95.8379 156.514 95.5449C156.286 95.2454 156.172 94.9297 156.172 94.5977C156.172 94.181 156.293 93.8359 156.534 93.5625C156.775 93.2826 157.123 93.0091 157.579 92.7422C157.006 92.4948 156.55 92.0977 156.211 91.5508C155.879 91.0039 155.713 90.3594 155.713 89.6172C155.713 88.4258 156.101 87.5046 156.875 86.8535C157.65 86.2025 158.757 85.877 160.196 85.877C160.502 85.877 160.863 85.9062 161.28 85.9648C161.703 86.0169 161.973 86.056 162.09 86.082H165.899ZM157.471 98.543C157.471 98.9531 157.667 99.2754 158.057 99.5098C158.454 99.7441 159.008 99.8613 159.717 99.8613C160.785 99.8613 161.622 99.7148 162.227 99.4219C162.833 99.1289 163.135 98.7285 163.135 98.2207C163.135 97.8105 162.956 97.5273 162.598 97.3711C162.24 97.2148 161.687 97.1367 160.938 97.1367H159.395C158.848 97.1367 158.389 97.2637 158.018 97.5176C157.653 97.778 157.471 98.1198 157.471 98.543ZM158.555 89.6562C158.555 90.2487 158.689 90.7174 158.956 91.0625C159.229 91.4076 159.642 91.5801 160.196 91.5801C160.756 91.5801 161.166 91.4076 161.426 91.0625C161.687 90.7174 161.817 90.2487 161.817 89.6562C161.817 88.3411 161.277 87.6836 160.196 87.6836C159.102 87.6836 158.555 88.3411 158.555 89.6562ZM167.579 83.2598C167.579 82.2897 168.119 81.8047 169.2 81.8047C170.28 81.8047 170.821 82.2897 170.821 83.2598C170.821 83.722 170.684 84.0833 170.411 84.3438C170.144 84.5977 169.74 84.7246 169.2 84.7246C168.119 84.7246 167.579 84.2363 167.579 83.2598ZM170.684 97H167.706V86.082H170.684V97ZM178.252 97.1953C174.854 97.1953 173.155 95.3301 173.155 91.5996C173.155 89.7441 173.617 88.3281 174.542 87.3516C175.466 86.3685 176.791 85.877 178.516 85.877C179.779 85.877 180.912 86.1243 181.915 86.6191L181.036 88.9238C180.567 88.735 180.131 88.582 179.727 88.4648C179.323 88.3411 178.92 88.2793 178.516 88.2793C176.967 88.2793 176.192 89.3796 176.192 91.5801C176.192 93.7155 176.967 94.7832 178.516 94.7832C179.089 94.7832 179.62 94.7083 180.108 94.5586C180.596 94.4023 181.084 94.1615 181.573 93.8359V96.3848C181.091 96.6908 180.603 96.9023 180.108 97.0195C179.62 97.1367 179.001 97.1953 178.252 97.1953ZM189.18 83.2598C189.18 82.2897 189.721 81.8047 190.801 81.8047C191.882 81.8047 192.422 82.2897 192.422 83.2598C192.422 83.722 192.286 84.0833 192.012 84.3438C191.745 84.5977 191.342 84.7246 190.801 84.7246C189.721 84.7246 189.18 84.2363 189.18 83.2598ZM192.286 97H189.307V86.082H192.286V97ZM205.499 97H202.52V90.623C202.52 89.8353 202.38 89.2461 202.1 88.8555C201.82 88.4583 201.374 88.2598 200.762 88.2598C199.929 88.2598 199.327 88.5397 198.956 89.0996C198.584 89.653 198.399 90.5742 198.399 91.8633V97H195.42V86.082H197.696L198.096 87.4785H198.262C198.594 86.9512 199.05 86.554 199.629 86.2871C200.215 86.0137 200.879 85.877 201.622 85.877C202.891 85.877 203.855 86.222 204.512 86.9121C205.17 87.5957 205.499 88.5853 205.499 89.8809V97ZM208.145 95.6035C208.145 95.0566 208.292 94.6432 208.584 94.3633C208.877 94.0833 209.304 93.9434 209.864 93.9434C210.404 93.9434 210.821 94.0866 211.114 94.373C211.413 94.6595 211.563 95.0697 211.563 95.6035C211.563 96.1178 211.413 96.5247 211.114 96.8242C210.814 97.1172 210.398 97.2637 209.864 97.2637C209.317 97.2637 208.894 97.1204 208.594 96.834C208.295 96.541 208.145 96.1309 208.145 95.6035Z" fill="#185CC4"/>
</svg>
