<svg width="62" height="62" viewBox="0 0 62 62" fill="none" xmlns="http://www.w3.org/2000/svg">
<g filter="url(#filter0_d_530_13031)">
<circle cx="30" cy="29" r="25" fill="white"/>
</g>
<path d="M43.1348 28.6532C43.1348 27.7527 43.0477 26.8231 42.9024 25.9517H30.3245V31.0932H37.5285C37.238 32.749 36.2794 34.2014 34.8561 35.1309L39.1552 38.4715C41.6824 36.1186 43.1348 32.6909 43.1348 28.6532Z" fill="#4280EF"/>
<path d="M30.327 41.6667C33.929 41.6667 36.95 40.4757 39.1577 38.4423L34.8585 35.1308C33.6675 35.9442 32.128 36.409 30.327 36.409C26.8412 36.409 23.9073 34.056 22.8325 30.9188L18.4172 34.3175C20.6829 38.82 25.2726 41.6667 30.327 41.6667Z" fill="#34A353"/>
<path d="M22.8313 30.8898C22.2794 29.2341 22.2794 27.4331 22.8313 25.7773L18.416 22.3496C16.5278 26.1259 16.5278 30.5703 18.416 34.3175L22.8313 30.8898Z" fill="#F6B704"/>
<path d="M30.327 20.2873C32.2151 20.2582 34.0742 20.9845 35.4395 22.2916L39.2448 18.4573C36.8338 16.1915 33.6385 14.9715 30.327 15.0005C25.2726 15.0005 20.6829 17.8472 18.4172 22.3497L22.8325 25.7774C23.9073 22.6112 26.8412 20.2873 30.327 20.2873Z" fill="#E54335"/>
<defs>
<filter id="filter0_d_530_13031" x="0" y="0" width="62" height="62" filterUnits="userSpaceOnUse" color-interpolation-filters="sRGB">
<feFlood flood-opacity="0" result="BackgroundImageFix"/>
<feColorMatrix in="SourceAlpha" type="matrix" values="0 0 0 0 0 0 0 0 0 0 0 0 0 0 0 0 0 0 127 0" result="hardAlpha"/>
<feOffset dx="1" dy="2"/>
<feGaussianBlur stdDeviation="3"/>
<feComposite in2="hardAlpha" operator="out"/>
<feColorMatrix type="matrix" values="0 0 0 0 0 0 0 0 0 0 0 0 0 0 0 0 0 0 0.15 0"/>
<feBlend mode="normal" in2="BackgroundImageFix" result="effect1_dropShadow_530_13031"/>
<feBlend mode="normal" in="SourceGraphic" in2="effect1_dropShadow_530_13031" result="shape"/>
</filter>
</defs>
</svg>
