<svg width="22" height="22" viewBox="0 0 22 22" fill="none" xmlns="http://www.w3.org/2000/svg">
<path fill-rule="evenodd" clip-rule="evenodd" d="M11.5757 5.19038C11.8101 4.93654 12.19 4.93654 12.4243 5.19038L17.8243 11.0404C18.0586 11.2942 18.0586 11.7058 17.8243 11.9596L12.4243 17.8096C12.19 18.0635 11.8101 18.0635 11.5757 17.8096C11.3414 17.5558 11.3414 17.1442 11.5757 16.8904L16.5515 11.5L11.5757 6.10962C11.3414 5.85578 11.3414 5.44422 11.5757 5.19038Z" fill="#185CC4"/>
<path fill-rule="evenodd" clip-rule="evenodd" d="M5.17574 5.19038C5.41005 4.93654 5.78995 4.93654 6.02426 5.19038L11.4243 11.0404C11.6586 11.2942 11.6586 11.7058 11.4243 11.9596L6.02426 17.8096C5.78995 18.0635 5.41005 18.0635 5.17574 17.8096C4.94142 17.5558 4.94142 17.1442 5.17574 16.8904L10.1515 11.5L5.17574 6.10962C4.94142 5.85578 4.94142 5.44422 5.17574 5.19038Z" fill="#185CC4"/>
</svg>
