<svg width="18" height="18" viewBox="0 0 18 18" fill="none" xmlns="http://www.w3.org/2000/svg">
<path fill-rule="evenodd" clip-rule="evenodd" d="M3 8.25C3 5.3505 5.3505 3 8.25 3C11.1495 3 13.5 5.3505 13.5 8.25C13.5 9.66444 12.9406 10.9482 12.0311 11.8923C12.0054 11.912 11.9807 11.9336 11.9572 11.9572C11.9336 11.9807 11.912 12.0054 11.8923 12.0311C10.9482 12.9406 9.66444 13.5 8.25 13.5C5.3505 13.5 3 11.1495 3 8.25ZM12.4633 13.5239C11.3085 14.4476 9.84376 15 8.25 15C4.52208 15 1.5 11.9779 1.5 8.25C1.5 4.52208 4.52208 1.5 8.25 1.5C11.9779 1.5 15 4.52208 15 8.25C15 9.84376 14.4476 11.3085 13.5239 12.4633L16.2803 15.2197C16.5732 15.5126 16.5732 15.9874 16.2803 16.2803C15.9874 16.5732 15.5126 16.5732 15.2197 16.2803L12.4633 13.5239Z" fill="black"/>
</svg>
