<svg width="22" height="22" viewBox="0 0 22 22" fill="none" xmlns="http://www.w3.org/2000/svg">
<path fill-rule="evenodd" clip-rule="evenodd" d="M13.9231 1.84H2.61538C2.16931 1.84 1.80769 2.21608 1.80769 2.68V13.6C1.80769 14.0639 2.16931 14.44 2.61538 14.44H13.9231C14.3692 14.44 14.7308 14.0639 14.7308 13.6V2.68C14.7308 2.21608 14.3692 1.84 13.9231 1.84ZM2.61538 1C1.72323 1 1 1.75216 1 2.68V13.6C1 14.5278 1.72323 15.28 2.61538 15.28H13.9231C14.8152 15.28 15.5385 14.5278 15.5385 13.6V2.68C15.5385 1.75216 14.8152 1 13.9231 1H2.61538Z" fill="white"/>
<path fill-rule="evenodd" clip-rule="evenodd" d="M3.01923 4.36C3.01923 4.12804 3.20003 3.94 3.42307 3.94H12.3077C12.5307 3.94 12.7115 4.12804 12.7115 4.36C12.7115 4.59196 12.5307 4.78 12.3077 4.78H3.42307C3.20003 4.78 3.01923 4.59196 3.01923 4.36Z" fill="white"/>
<path fill-rule="evenodd" clip-rule="evenodd" d="M3.01923 7.3C3.01923 7.06805 3.20003 6.88 3.42307 6.88H9.48076C9.7038 6.88 9.88461 7.06805 9.88461 7.3C9.88461 7.53196 9.7038 7.72 9.48076 7.72H3.42307C3.20003 7.72 3.01923 7.53196 3.01923 7.3Z" fill="white"/>
<path fill-rule="evenodd" clip-rule="evenodd" d="M3.01923 10.2399C3.01923 10.008 3.20003 9.81995 3.42307 9.81995H6.65384C6.87688 9.81995 7.05769 10.008 7.05769 10.2399C7.05769 10.4719 6.87688 10.6599 6.65384 10.6599H3.42307C3.20003 10.6599 3.01923 10.4719 3.01923 10.2399Z" fill="white"/>
<path d="M9.0769 11.08C9.0769 10.1521 9.80014 9.39996 10.6923 9.39996H20.3846C21.2767 9.39996 22 10.1521 22 11.08V20.32C22 21.2478 21.2767 22 20.3846 22H10.6923C9.80014 22 9.0769 21.2478 9.0769 20.32V11.08Z" fill="white"/>
<path fill-rule="evenodd" clip-rule="evenodd" d="M20.3846 10.24H10.6923C10.2462 10.24 9.8846 10.616 9.8846 11.08V20.32C9.8846 20.7839 10.2462 21.16 10.6923 21.16H20.3846C20.8307 21.16 21.1923 20.7839 21.1923 20.32V11.08C21.1923 10.616 20.8307 10.24 20.3846 10.24ZM10.6923 9.39996C9.80014 9.39996 9.0769 10.1521 9.0769 11.08V20.32C9.0769 21.2478 9.80014 22 10.6923 22H20.3846C21.2767 22 22 21.2478 22 20.32V11.08C22 10.1521 21.2767 9.39996 20.3846 9.39996H10.6923Z" fill="white"/>
<path fill-rule="evenodd" clip-rule="evenodd" d="M13.1154 16.54C12.8923 16.54 12.7115 16.352 12.7115 16.12C12.7115 14.7666 13.1477 13.6918 13.9146 13.0169C14.6817 12.3419 15.7221 12.1179 16.8292 12.3482C17.0479 12.3937 17.1897 12.615 17.146 12.8424C17.1022 13.0699 16.8895 13.2174 16.6708 13.1719C15.7586 12.9821 14.9817 13.1782 14.4363 13.6582C13.8908 14.1383 13.5192 14.9534 13.5192 16.12C13.5192 16.352 13.3384 16.54 13.1154 16.54Z" fill="#185CC4"/>
<path fill-rule="evenodd" clip-rule="evenodd" d="M18.3654 14.44C19.0345 14.44 19.5769 13.8758 19.5769 13.18C19.5769 12.4841 19.0345 11.92 18.3654 11.92C17.6962 11.92 17.1538 12.4841 17.1538 13.18C17.1538 13.8758 17.6962 14.44 18.3654 14.44ZM18.3654 15.28C19.4806 15.28 20.3846 14.3398 20.3846 13.18C20.3846 12.0202 19.4806 11.08 18.3654 11.08C17.2502 11.08 16.3461 12.0202 16.3461 13.18C16.3461 14.3398 17.2502 15.28 18.3654 15.28Z" fill="#185CC4"/>
<path fill-rule="evenodd" clip-rule="evenodd" d="M13.1153 19.9C14.0075 19.9 14.7307 19.1478 14.7307 18.22C14.7307 17.2921 14.0075 16.54 13.1153 16.54C12.2232 16.54 11.4999 17.2921 11.4999 18.22C11.4999 19.1478 12.2232 19.9 13.1153 19.9ZM13.1153 20.74C14.4535 20.74 15.5384 19.6117 15.5384 18.22C15.5384 16.8282 14.4535 15.7 13.1153 15.7C11.7771 15.7 10.6922 16.8282 10.6922 18.22C10.6922 19.6117 11.7771 20.74 13.1153 20.74Z" fill="#185CC4"/>
</svg>
