<svg width="40" height="40" viewBox="0 0 40 40" fill="none" xmlns="http://www.w3.org/2000/svg">
<rect x="0.15" y="0.15" width="39.7" height="39.7" rx="3.85" stroke="black" stroke-opacity="0.5" stroke-width="0.3"/>
<path d="M26.5 24H15L11.5 27.5V12.5H26.5V24Z" fill="#185CC3" fill-opacity="0.1"/>
<path d="M29.9978 24.7056C29.9978 27.1465 28.019 29.1254 25.578 29.1254C23.137 29.1254 21.1582 27.1465 21.1582 24.7056C21.1582 22.2646 23.137 20.2858 25.578 20.2858C28.019 20.2858 29.9978 22.2646 29.9978 24.7056Z" fill="white" stroke="black"/>
<path d="M25.5781 22.511V26.9002" stroke="#111111" stroke-linecap="round" stroke-linejoin="round"/>
<path d="M23.3838 24.7056H27.773" stroke="#111111" stroke-linecap="round" stroke-linejoin="round"/>
<path fill-rule="evenodd" clip-rule="evenodd" d="M11.869 12.7417C12.104 12.5067 12.4228 12.3746 12.7552 12.3746H25.0277C25.36 12.3746 25.6788 12.5067 25.9138 12.7417C26.1488 12.9767 26.2809 13.2955 26.2809 13.6278V18.1457H27.2809V13.6278C27.2809 13.0303 27.0435 12.4571 26.6209 12.0346C26.1984 11.612 25.6253 11.3746 25.0277 11.3746H12.7552C12.1576 11.3746 11.5845 11.612 11.1619 12.0346C10.7393 12.4571 10.502 13.0303 10.502 13.6278V27.6536C10.502 27.8558 10.6238 28.0381 10.8106 28.1155C10.9974 28.1929 11.2125 28.1501 11.3555 28.0071L14.7155 24.6471H18.8915V23.6471H14.5084C14.3758 23.6471 14.2486 23.6998 14.1548 23.7936L11.502 26.4465V13.6278C11.502 13.2955 11.634 12.9767 11.869 12.7417Z" fill="black"/>
<circle cx="15.5474" cy="18.0606" r="0.83064" fill="black"/>
<circle cx="18.8697" cy="18.0606" r="0.83064" fill="black"/>
<circle cx="22.192" cy="18.0606" r="0.83064" fill="black"/>
</svg>
