<svg width="33" height="33" viewBox="0 0 33 33" fill="none" xmlns="http://www.w3.org/2000/svg">
<g filter="url(#filter0_d_375_7369)">
<circle cx="16.5" cy="16.5" r="12.5" fill="white"/>
</g>
<path d="M10.875 12.75H12.125H22.125" stroke="#D00B0B" stroke-linecap="round" stroke-linejoin="round"/>
<path d="M14 12.75V11.5C14 11.1685 14.1317 10.8505 14.3661 10.6161C14.6005 10.3817 14.9185 10.25 15.25 10.25H17.75C18.0815 10.25 18.3995 10.3817 18.6339 10.6161C18.8683 10.8505 19 11.1685 19 11.5V12.75M20.875 12.75V21.5C20.875 21.8315 20.7433 22.1495 20.5089 22.3839C20.2745 22.6183 19.9565 22.75 19.625 22.75H13.375C13.0435 22.75 12.7255 22.6183 12.4911 22.3839C12.2567 22.1495 12.125 21.8315 12.125 21.5V12.75H20.875Z" stroke="#D00B0B" stroke-linecap="round" stroke-linejoin="round"/>
<path d="M15.25 15.875V19.625" stroke="#D00B0B" stroke-linecap="round" stroke-linejoin="round"/>
<path d="M17.75 15.875V19.625" stroke="#D00B0B" stroke-linecap="round" stroke-linejoin="round"/>
<defs>
<filter id="filter0_d_375_7369" x="0" y="0" width="33" height="33" filterUnits="userSpaceOnUse" color-interpolation-filters="sRGB">
<feFlood flood-opacity="0" result="BackgroundImageFix"/>
<feColorMatrix in="SourceAlpha" type="matrix" values="0 0 0 0 0 0 0 0 0 0 0 0 0 0 0 0 0 0 127 0" result="hardAlpha"/>
<feOffset/>
<feGaussianBlur stdDeviation="2"/>
<feComposite in2="hardAlpha" operator="out"/>
<feColorMatrix type="matrix" values="0 0 0 0 0 0 0 0 0 0 0 0 0 0 0 0 0 0 0.25 0"/>
<feBlend mode="normal" in2="BackgroundImageFix" result="effect1_dropShadow_375_7369"/>
<feBlend mode="normal" in="SourceGraphic" in2="effect1_dropShadow_375_7369" result="shape"/>
</filter>
</defs>
</svg>
