<svg width="33" height="33" viewBox="0 0 33 33" fill="none" xmlns="http://www.w3.org/2000/svg">
<g filter="url(#filter0_d_375_7347)">
<circle cx="16.5" cy="16.5" r="12.5" fill="white"/>
</g>
<path d="M16.1611 11.6042H11.6038C11.2585 11.6042 10.9273 11.7414 10.6831 11.9856C10.4389 12.2298 10.3018 12.561 10.3018 12.9063V22.0209C10.3018 22.3662 10.4389 22.6974 10.6831 22.9416C10.9273 23.1858 11.2585 23.323 11.6038 23.323H20.7184C21.0638 23.323 21.3949 23.1858 21.6391 22.9416C21.8833 22.6974 22.0205 22.3662 22.0205 22.0209V17.4636" stroke="#111111" stroke-linecap="round" stroke-linejoin="round"/>
<path d="M21.0439 10.6276C21.3029 10.3686 21.6542 10.2231 22.0205 10.2231C22.3868 10.2231 22.7381 10.3686 22.9971 10.6276C23.2561 10.8867 23.4016 11.2379 23.4016 11.6042C23.4016 11.9705 23.2561 12.3218 22.9971 12.5808L16.8122 18.7657L14.208 19.4167L14.859 16.8125L21.0439 10.6276Z" stroke="#111111" stroke-linecap="round" stroke-linejoin="round"/>
<defs>
<filter id="filter0_d_375_7347" x="0" y="0" width="33" height="33" filterUnits="userSpaceOnUse" color-interpolation-filters="sRGB">
<feFlood flood-opacity="0" result="BackgroundImageFix"/>
<feColorMatrix in="SourceAlpha" type="matrix" values="0 0 0 0 0 0 0 0 0 0 0 0 0 0 0 0 0 0 127 0" result="hardAlpha"/>
<feOffset/>
<feGaussianBlur stdDeviation="2"/>
<feComposite in2="hardAlpha" operator="out"/>
<feColorMatrix type="matrix" values="0 0 0 0 0 0 0 0 0 0 0 0 0 0 0 0 0 0 0.25 0"/>
<feBlend mode="normal" in2="BackgroundImageFix" result="effect1_dropShadow_375_7347"/>
<feBlend mode="normal" in="SourceGraphic" in2="effect1_dropShadow_375_7347" result="shape"/>
</filter>
</defs>
</svg>
