<svg width="40" height="40" viewBox="0 0 40 40" fill="none" xmlns="http://www.w3.org/2000/svg">
<rect x="0.15" y="0.15" width="39.7" height="39.7" rx="3.85" stroke="black" stroke-opacity="0.5" stroke-width="0.3"/>
<path fill-rule="evenodd" clip-rule="evenodd" d="M13 12H28C28.5523 12 29 12.4477 29 13V20.1315H30V13C30 11.8954 29.1046 11 28 11H13C11.8954 11 11 11.8954 11 13V26.2309C11 27.3355 11.8954 28.2309 13 28.2309H21.9846V27.2309H13C12.4477 27.2309 12 26.7832 12 26.2309V13C12 12.4477 12.4477 12 13 12Z" fill="black"/>
<rect x="12" y="12" width="17" height="16" fill="#185CC4" fill-opacity="0.1"/>
<path d="M17 17.2533V16H23.6844V17.2533" stroke="black" stroke-linecap="round" stroke-linejoin="round"/>
<path d="M19.0889 22.9232H21.5955" stroke="black" stroke-linecap="round" stroke-linejoin="round"/>
<path d="M20.3418 16V22.6844" stroke="black" stroke-linecap="round" stroke-linejoin="round"/>
<circle cx="27.577" cy="26.3463" r="4.07697" fill="white" stroke="black"/>
<path d="M27.5771 24.3046V28.3879" stroke="#111111" stroke-linecap="round" stroke-linejoin="round"/>
<path d="M25.5352 26.3462H29.6185" stroke="#111111" stroke-linecap="round" stroke-linejoin="round"/>
</svg>
