<svg width="33" height="33" viewBox="0 0 33 33" fill="none" xmlns="http://www.w3.org/2000/svg">
<g filter="url(#filter0_d_375_7350)">
<circle cx="16.5" cy="16.5" r="12.5" fill="white"/>
</g>
<path fill-rule="evenodd" clip-rule="evenodd" d="M12.7074 11.1379C12.5198 11.1379 12.3398 11.2125 12.2072 11.3451C12.0745 11.4778 12 11.6577 12 11.8453V20.2971L13.5612 18.736C13.655 18.6422 13.7821 18.5895 13.9147 18.5895H21.1589C21.3465 18.5895 21.5265 18.515 21.6591 18.3823C21.7918 18.2497 21.8663 18.0698 21.8663 17.8821V11.8453C21.8663 11.6577 21.7918 11.4778 21.6591 11.3451C21.5265 11.2125 21.3465 11.1379 21.1589 11.1379H12.7074ZM11.5001 10.638C11.8203 10.3178 12.2545 10.1379 12.7074 10.1379H21.1589C21.6118 10.1379 22.046 10.3178 22.3662 10.638C22.6864 10.9582 22.8663 11.3925 22.8663 11.8453V17.8821C22.8663 18.335 22.6864 18.7692 22.3662 19.0894C22.046 19.4096 21.6118 19.5895 21.1589 19.5895H14.1218L11.8536 21.8578C11.7106 22.0008 11.4955 22.0436 11.3087 21.9662C11.1218 21.8888 11 21.7065 11 21.5042V11.8453C11 11.3925 11.1799 10.9582 11.5001 10.638Z" fill="black"/>
<circle cx="14.6296" cy="14.898" r="0.572028" fill="black"/>
<circle cx="16.9177" cy="14.898" r="0.572028" fill="black"/>
<circle cx="19.2068" cy="14.898" r="0.572028" fill="black"/>
<defs>
<filter id="filter0_d_375_7350" x="0" y="0" width="33" height="33" filterUnits="userSpaceOnUse" color-interpolation-filters="sRGB">
<feFlood flood-opacity="0" result="BackgroundImageFix"/>
<feColorMatrix in="SourceAlpha" type="matrix" values="0 0 0 0 0 0 0 0 0 0 0 0 0 0 0 0 0 0 127 0" result="hardAlpha"/>
<feOffset/>
<feGaussianBlur stdDeviation="2"/>
<feComposite in2="hardAlpha" operator="out"/>
<feColorMatrix type="matrix" values="0 0 0 0 0 0 0 0 0 0 0 0 0 0 0 0 0 0 0.25 0"/>
<feBlend mode="normal" in2="BackgroundImageFix" result="effect1_dropShadow_375_7350"/>
<feBlend mode="normal" in="SourceGraphic" in2="effect1_dropShadow_375_7350" result="shape"/>
</filter>
</defs>
</svg>
